<?xml version="1.0" encoding="utf-8"?><!DOCTYPE svg PUBLIC "-//W3C//DTD SVG 1.1//EN" "http://www.w3.org/Graphics/SVG/1.1/DTD/svg11.dtd"><svg width="96" height="64" viewBox="0 0 96 64" xmlns="http://www.w3.org/2000/svg" xmlns:xlink="http://www.w3.org/1999/xlink"><svg width="32" height="32" viewBox="0 0 32 32" id="IcoMoon"><path d="M8.111 16a3.701 3.701 0 1 1 7.402 0 3.701 3.701 0 0 1-7.402 0zM16 0C7.163 0 0 7.163 0 16s7.163 16 16 16c8.836 0 16-7.163 16-16S24.837 0 16 0zm-4.144 29.978C7.045 27.179 3.81 21.968 3.81 16S7.045 4.822 11.856 2.022c4.813 2.799 8.05 8.009 8.05 13.978s-3.237 11.179-8.05 13.978z"/></svg><svg width="32" height="32" viewBox="0 0 32 32" id="film" x="32"><path stroke="#449FDB" d="M0 0"/><path d="M0 4v24h32V4H0zm6 22H2v-4h4v4zm0-8H2v-4h4v4zm0-8H2V6h4v4zm18 16H8V6h16v20zm6 0h-4v-4h4v4zm0-8h-4v-4h4v4zm0-8h-4V6h4v4zm-18 0v12l8-6z"/></svg><svg width="32" height="32" viewBox="0 0 32 32" id="home" y="32"><path stroke="#449FDB" d="M0 0"/><path d="M16 2L0 18l3 3 3-3 2 12h6v-6h4v6h6l2-12 3 3 3-3L16 2zm0 12.828a2.829 2.829 0 1 1 0-5.657 2.829 2.829 0 0 1 0 5.657z"/></svg><svg width="32" height="32" viewBox="0 0 32 32" id="play" x="32" y="32"><path d="M30.662 5.003C26.174 4.358 21.214 4 16 4S5.826 4.358 1.338 5.003C.478 8.369 0 12.089 0 16s.477 7.63 1.338 10.997C5.827 27.642 10.786 28 16 28s10.174-.358 14.662-1.003C31.522 23.631 32 19.911 32 16s-.477-7.63-1.338-10.997zM12 22V10l10 6-10 6z"/></svg><svg width="32" height="32" viewBox="0 0 32 32" id="quill" x="64"><path stroke="#449FDB" d="M0 0"/><path d="M12 18.333s6.373-3.824 9.961-2.313a71.953 71.953 0 0 0 2.194-3.601c-3.51-.86-8.155-.086-8.155-.086s5.944-3.566 9.583-2.45c.73-1.316 1.439-2.614 2.124-3.822-2.899-.196-5.707.272-5.707.272s3.723-2.234 7.081-2.612C30.137 2.007 31.118.662 32 0 14.469 0 4 20 0 32h2l6-10s2 2 8 0c1.421-.474 2.842-1.789 4.237-3.56-3.519-.892-8.237-.106-8.237-.106z"/></svg><svg width="32" height="32" viewBox="0 0 32 32" id="svg" x="64" y="32"><path d="M29 13c-.888 0-1.686.386-2.236 1h-5.936l4.197-4.197a3 3 0 1 0-2.829-2.829l-4.197 4.197V5.235a3 3 0 1 0-4 0v5.936L9.802 6.974a3 3 0 1 0-2.829 2.829L11.17 14H5.234a3 3 0 1 0 0 4h5.936l-4.197 4.197a3 3 0 1 0 2.829 2.829l4.197-4.197v5.936a3 3 0 1 0 4-.001v-5.936l4.197 4.197a3 3 0 1 0 2.829-2.829l-4.197-4.197h5.936a3 3 0 1 0 2.235-5z"/></svg></svg>